<svg width="56" height="56" viewBox="0 0 56 56" fill="none" xmlns="http://www.w3.org/2000/svg">
<rect width="56" height="56" rx="28" fill="#CB412F"/>
<path d="M35.3976 22.6476C36.0323 22.0128 36.0323 20.9819 35.3976 20.3472C34.7628 19.7124 33.7319 19.7124 33.0972 20.3472L27.7499 25.6995L22.3976 20.3522C21.7628 19.7175 20.7319 19.7175 20.0972 20.3522C19.4624 20.987 19.4624 22.0179 20.0972 22.6526L25.4495 27.9999L20.1022 33.3522C19.4675 33.987 19.4675 35.0179 20.1022 35.6526C20.737 36.2874 21.7679 36.2874 22.4026 35.6526L27.7499 30.3003L33.1022 35.6476C33.737 36.2823 34.7679 36.2823 35.4026 35.6476C36.0374 35.0128 36.0374 33.9819 35.4026 33.3472L30.0503 27.9999L35.3976 22.6476Z" fill="white"/>
</svg>
